<mxfile host="app.diagrams.net" modified="2023-09-13T19:00:50.521Z" agent="Mozilla/5.0 (Windows NT 10.0; Win64; x64) AppleWebKit/537.36 (KHTML, like Gecko) Chrome/116.0.0.0 Safari/537.36" etag="HExiW0n6exHLIVa8n3jy" version="21.7.5" type="github">
  <diagram name="Page-1" id="2YBvvXClWsGukQMizWep">
    <mxGraphModel dx="1615" dy="834" grid="1" gridSize="10" guides="1" tooltips="1" connect="1" arrows="1" fold="1" page="1" pageScale="1" pageWidth="850" pageHeight="1100" math="0" shadow="0">
      <root>
        <mxCell id="0" />
        <mxCell id="1" parent="0" />
        <mxCell id="o9jhjcD2wl6_UNwFyDat-40" value="" style="endArrow=none;dashed=1;html=1;strokeWidth=2;rounded=0;dashPattern=1 2;exitX=0.5;exitY=1;exitDx=0;exitDy=0;fontStyle=1" edge="1" parent="1" source="o9jhjcD2wl6_UNwFyDat-14">
          <mxGeometry width="50" height="50" relative="1" as="geometry">
            <mxPoint x="494.70000000000005" y="150" as="sourcePoint" />
            <mxPoint x="495" y="550" as="targetPoint" />
          </mxGeometry>
        </mxCell>
        <mxCell id="o9jhjcD2wl6_UNwFyDat-6" value="&lt;span&gt;Visiteur&lt;/span&gt;" style="shape=umlActor;verticalLabelPosition=bottom;verticalAlign=top;html=1;fontStyle=1" vertex="1" parent="1">
          <mxGeometry x="120" y="50" width="40" height="70" as="geometry" />
        </mxCell>
        <mxCell id="o9jhjcD2wl6_UNwFyDat-11" value="" style="endArrow=none;dashed=1;html=1;strokeWidth=2;rounded=0;dashPattern=1 2;fontStyle=1" edge="1" parent="1">
          <mxGeometry width="50" height="50" relative="1" as="geometry">
            <mxPoint x="140" y="150" as="sourcePoint" />
            <mxPoint x="140" y="880" as="targetPoint" />
          </mxGeometry>
        </mxCell>
        <mxCell id="o9jhjcD2wl6_UNwFyDat-12" value="&lt;span&gt;&lt;font style=&quot;font-size: 15px;&quot;&gt;Interface Lesieur&lt;/font&gt;&lt;/span&gt;" style="html=1;whiteSpace=wrap;fontStyle=1" vertex="1" parent="1">
          <mxGeometry x="260" y="70" width="110" height="50" as="geometry" />
        </mxCell>
        <mxCell id="o9jhjcD2wl6_UNwFyDat-13" value="&lt;span&gt;&lt;font style=&quot;font-size: 15px;&quot;&gt;Produit&lt;/font&gt;&lt;/span&gt;" style="html=1;whiteSpace=wrap;fontStyle=1" vertex="1" parent="1">
          <mxGeometry x="665" y="70" width="110" height="50" as="geometry" />
        </mxCell>
        <mxCell id="o9jhjcD2wl6_UNwFyDat-14" value="&lt;span&gt;&lt;font style=&quot;font-size: 15px;&quot;&gt;Client&lt;/font&gt;&lt;/span&gt;" style="html=1;whiteSpace=wrap;fontStyle=1" vertex="1" parent="1">
          <mxGeometry x="440" y="70" width="110" height="50" as="geometry" />
        </mxCell>
        <mxCell id="o9jhjcD2wl6_UNwFyDat-18" value="" style="endArrow=none;dashed=1;html=1;strokeWidth=2;rounded=0;dashPattern=1 2;fontStyle=1" edge="1" parent="1">
          <mxGeometry width="50" height="50" relative="1" as="geometry">
            <mxPoint x="495" y="610" as="sourcePoint" />
            <mxPoint x="495" y="880" as="targetPoint" />
          </mxGeometry>
        </mxCell>
        <mxCell id="o9jhjcD2wl6_UNwFyDat-21" value="" style="endArrow=none;dashed=1;html=1;strokeWidth=2;rounded=0;dashPattern=1 2;exitX=0.5;exitY=1;exitDx=0;exitDy=0;fontStyle=1" edge="1" parent="1">
          <mxGeometry width="50" height="50" relative="1" as="geometry">
            <mxPoint x="309.23" y="120" as="sourcePoint" />
            <mxPoint x="309.23" y="200" as="targetPoint" />
          </mxGeometry>
        </mxCell>
        <mxCell id="o9jhjcD2wl6_UNwFyDat-55" value="1: Inscription" style="text;html=1;align=center;verticalAlign=middle;resizable=0;points=[];autosize=1;strokeColor=none;fillColor=none;fontSize=15;fontStyle=1" vertex="1" parent="1">
          <mxGeometry x="155" y="170" width="120" height="30" as="geometry" />
        </mxCell>
        <mxCell id="o9jhjcD2wl6_UNwFyDat-64" value="" style="group;fontStyle=1" vertex="1" connectable="0" parent="1">
          <mxGeometry x="790" y="70" width="110" height="50" as="geometry" />
        </mxCell>
        <mxCell id="o9jhjcD2wl6_UNwFyDat-15" value="&lt;span&gt;&lt;font style=&quot;font-size: 15px;&quot;&gt;BD&lt;/font&gt;&lt;/span&gt;" style="html=1;whiteSpace=wrap;fontStyle=1" vertex="1" parent="1">
          <mxGeometry x="900" y="70" width="110" height="50" as="geometry" />
        </mxCell>
        <mxCell id="o9jhjcD2wl6_UNwFyDat-34" value="" style="endArrow=none;dashed=1;html=1;strokeWidth=2;rounded=0;dashPattern=1 2;exitX=0.5;exitY=1;exitDx=0;exitDy=0;fontStyle=1" edge="1" parent="1" source="o9jhjcD2wl6_UNwFyDat-67" target="o9jhjcD2wl6_UNwFyDat-33">
          <mxGeometry width="50" height="50" relative="1" as="geometry">
            <mxPoint x="844.66" y="150" as="sourcePoint" />
            <mxPoint x="840" y="650" as="targetPoint" />
          </mxGeometry>
        </mxCell>
        <mxCell id="o9jhjcD2wl6_UNwFyDat-33" value="" style="html=1;points=[];perimeter=orthogonalPerimeter;outlineConnect=0;targetShapes=umlLifeline;portConstraint=eastwest;newEdgeStyle={&quot;edgeStyle&quot;:&quot;elbowEdgeStyle&quot;,&quot;elbow&quot;:&quot;vertical&quot;,&quot;curved&quot;:0,&quot;rounded&quot;:0};rounded=0;glass=0;shadow=0;fontStyle=1" vertex="1" parent="1">
          <mxGeometry x="945" y="486.5763157894737" width="20" height="49.736842105263165" as="geometry" />
        </mxCell>
        <mxCell id="o9jhjcD2wl6_UNwFyDat-32" value="" style="endArrow=classic;html=1;rounded=0;fontStyle=1" edge="1" parent="1" source="o9jhjcD2wl6_UNwFyDat-30" target="o9jhjcD2wl6_UNwFyDat-33">
          <mxGeometry width="50" height="50" relative="1" as="geometry">
            <mxPoint x="690" y="486.5763157894737" as="sourcePoint" />
            <mxPoint x="830" y="486.5763157894737" as="targetPoint" />
          </mxGeometry>
        </mxCell>
        <mxCell id="o9jhjcD2wl6_UNwFyDat-35" value="" style="endArrow=classic;html=1;rounded=0;fontStyle=1" edge="1" parent="1" source="o9jhjcD2wl6_UNwFyDat-33" target="o9jhjcD2wl6_UNwFyDat-36">
          <mxGeometry width="50" height="50" relative="1" as="geometry">
            <mxPoint x="320" y="511.44473684210527" as="sourcePoint" />
            <mxPoint x="720" y="536.3131578947368" as="targetPoint" />
          </mxGeometry>
        </mxCell>
        <mxCell id="o9jhjcD2wl6_UNwFyDat-16" value="" style="endArrow=none;dashed=1;html=1;strokeWidth=2;rounded=0;dashPattern=1 2;fontStyle=1" edge="1" parent="1">
          <mxGeometry width="50" height="50" relative="1" as="geometry">
            <mxPoint x="960" y="540" as="sourcePoint" />
            <mxPoint x="960" y="880" as="targetPoint" />
          </mxGeometry>
        </mxCell>
        <mxCell id="o9jhjcD2wl6_UNwFyDat-31" value="" style="endArrow=none;dashed=1;html=1;strokeWidth=2;rounded=0;dashPattern=1 2;exitX=0.5;exitY=1;exitDx=0;exitDy=0;fontStyle=1" edge="1" parent="1" source="o9jhjcD2wl6_UNwFyDat-13" target="o9jhjcD2wl6_UNwFyDat-30">
          <mxGeometry width="50" height="50" relative="1" as="geometry">
            <mxPoint x="674.66" y="150" as="sourcePoint" />
            <mxPoint x="675" y="680" as="targetPoint" />
          </mxGeometry>
        </mxCell>
        <mxCell id="o9jhjcD2wl6_UNwFyDat-68" value="" style="endArrow=classic;html=1;rounded=0;fontStyle=1;exitX=1.25;exitY=0.114;exitDx=0;exitDy=0;exitPerimeter=0;" edge="1" parent="1" target="o9jhjcD2wl6_UNwFyDat-67" source="o9jhjcD2wl6_UNwFyDat-25">
          <mxGeometry width="50" height="50" relative="1" as="geometry">
            <mxPoint x="720" y="320" as="sourcePoint" />
            <mxPoint x="830" y="319.99631578947367" as="targetPoint" />
          </mxGeometry>
        </mxCell>
        <mxCell id="o9jhjcD2wl6_UNwFyDat-69" value="" style="endArrow=classic;html=1;rounded=0;fontStyle=1" edge="1" parent="1">
          <mxGeometry width="50" height="50" relative="1" as="geometry">
            <mxPoint x="945" y="369.73" as="sourcePoint" />
            <mxPoint x="510" y="370" as="targetPoint" />
          </mxGeometry>
        </mxCell>
        <mxCell id="o9jhjcD2wl6_UNwFyDat-19" value="" style="endArrow=none;dashed=1;html=1;strokeWidth=2;rounded=0;dashPattern=1 2;fontStyle=1" edge="1" parent="1">
          <mxGeometry width="50" height="50" relative="1" as="geometry">
            <mxPoint x="309.88000000000005" y="233.1578947368421" as="sourcePoint" />
            <mxPoint x="310" y="880" as="targetPoint" />
          </mxGeometry>
        </mxCell>
        <mxCell id="o9jhjcD2wl6_UNwFyDat-20" value="" style="html=1;points=[];perimeter=orthogonalPerimeter;outlineConnect=0;targetShapes=umlLifeline;portConstraint=eastwest;newEdgeStyle={&quot;edgeStyle&quot;:&quot;elbowEdgeStyle&quot;,&quot;elbow&quot;:&quot;vertical&quot;,&quot;curved&quot;:0,&quot;rounded&quot;:0};rounded=0;glass=0;shadow=0;fontStyle=1" vertex="1" parent="1">
          <mxGeometry x="300" y="200" width="20" height="33.15789473684211" as="geometry" />
        </mxCell>
        <mxCell id="o9jhjcD2wl6_UNwFyDat-22" value="" style="endArrow=block;html=1;rounded=0;endFill=1;fontStyle=1" edge="1" parent="1" target="o9jhjcD2wl6_UNwFyDat-20">
          <mxGeometry width="50" height="50" relative="1" as="geometry">
            <mxPoint x="140" y="200" as="sourcePoint" />
            <mxPoint x="490" y="241.44736842105263" as="targetPoint" />
          </mxGeometry>
        </mxCell>
        <mxCell id="o9jhjcD2wl6_UNwFyDat-23" value="" style="html=1;points=[];perimeter=orthogonalPerimeter;outlineConnect=0;targetShapes=umlLifeline;portConstraint=eastwest;newEdgeStyle={&quot;edgeStyle&quot;:&quot;elbowEdgeStyle&quot;,&quot;elbow&quot;:&quot;vertical&quot;,&quot;curved&quot;:0,&quot;rounded&quot;:0};rounded=0;glass=0;shadow=0;fontStyle=1" vertex="1" parent="1">
          <mxGeometry x="300" y="266.3157894736842" width="20" height="33.15789473684211" as="geometry" />
        </mxCell>
        <mxCell id="o9jhjcD2wl6_UNwFyDat-24" value="" style="endArrow=block;html=1;rounded=0;endFill=1;fontStyle=1" edge="1" parent="1" target="o9jhjcD2wl6_UNwFyDat-23">
          <mxGeometry width="50" height="50" relative="1" as="geometry">
            <mxPoint x="140" y="266.3157894736842" as="sourcePoint" />
            <mxPoint x="490" y="307.7631578947369" as="targetPoint" />
          </mxGeometry>
        </mxCell>
        <mxCell id="o9jhjcD2wl6_UNwFyDat-25" value="" style="html=1;points=[];perimeter=orthogonalPerimeter;outlineConnect=0;targetShapes=umlLifeline;portConstraint=eastwest;newEdgeStyle={&quot;edgeStyle&quot;:&quot;elbowEdgeStyle&quot;,&quot;elbow&quot;:&quot;vertical&quot;,&quot;curved&quot;:0,&quot;rounded&quot;:0};rounded=0;glass=0;shadow=0;fontStyle=1" vertex="1" parent="1">
          <mxGeometry x="485" y="324.34210526315786" width="20" height="49.736842105263165" as="geometry" />
        </mxCell>
        <mxCell id="o9jhjcD2wl6_UNwFyDat-27" value="" style="endArrow=classic;html=1;rounded=0;fontStyle=1" edge="1" parent="1" target="o9jhjcD2wl6_UNwFyDat-25">
          <mxGeometry width="50" height="50" relative="1" as="geometry">
            <mxPoint x="310" y="324.34210526315786" as="sourcePoint" />
            <mxPoint x="420" y="241.44736842105263" as="targetPoint" />
          </mxGeometry>
        </mxCell>
        <mxCell id="o9jhjcD2wl6_UNwFyDat-38" value="" style="endArrow=classic;html=1;rounded=0;fontStyle=1" edge="1" parent="1" source="o9jhjcD2wl6_UNwFyDat-36" target="o9jhjcD2wl6_UNwFyDat-39">
          <mxGeometry width="50" height="50" relative="1" as="geometry">
            <mxPoint x="380" y="528.0236842105263" as="sourcePoint" />
            <mxPoint x="530" y="536.3131578947368" as="targetPoint" />
          </mxGeometry>
        </mxCell>
        <mxCell id="o9jhjcD2wl6_UNwFyDat-39" value="" style="html=1;points=[];perimeter=orthogonalPerimeter;outlineConnect=0;targetShapes=umlLifeline;portConstraint=eastwest;newEdgeStyle={&quot;edgeStyle&quot;:&quot;elbowEdgeStyle&quot;,&quot;elbow&quot;:&quot;vertical&quot;,&quot;curved&quot;:0,&quot;rounded&quot;:0};rounded=0;glass=0;shadow=0;fontStyle=1" vertex="1" parent="1">
          <mxGeometry x="485" y="552.8921052631579" width="20" height="49.736842105263165" as="geometry" />
        </mxCell>
        <mxCell id="o9jhjcD2wl6_UNwFyDat-43" value="" style="endArrow=none;dashed=1;html=1;strokeWidth=2;rounded=0;dashPattern=1 2;fontStyle=1" edge="1" parent="1" source="o9jhjcD2wl6_UNwFyDat-39" target="o9jhjcD2wl6_UNwFyDat-41">
          <mxGeometry width="50" height="50" relative="1" as="geometry">
            <mxPoint x="495" y="531.578947368421" as="sourcePoint" />
            <mxPoint x="495" y="722.2368421052632" as="targetPoint" />
          </mxGeometry>
        </mxCell>
        <mxCell id="o9jhjcD2wl6_UNwFyDat-41" value="" style="html=1;points=[];perimeter=orthogonalPerimeter;outlineConnect=0;targetShapes=umlLifeline;portConstraint=eastwest;newEdgeStyle={&quot;edgeStyle&quot;:&quot;elbowEdgeStyle&quot;,&quot;elbow&quot;:&quot;vertical&quot;,&quot;curved&quot;:0,&quot;rounded&quot;:0};rounded=0;glass=0;shadow=0;fontStyle=1" vertex="1" parent="1">
          <mxGeometry x="485" y="639.9963157894738" width="20" height="33.15789473684211" as="geometry" />
        </mxCell>
        <mxCell id="o9jhjcD2wl6_UNwFyDat-44" value="" style="endArrow=classic;html=1;rounded=0;fontStyle=1" edge="1" parent="1" target="o9jhjcD2wl6_UNwFyDat-41">
          <mxGeometry width="50" height="50" relative="1" as="geometry">
            <mxPoint x="310" y="639.9963157894738" as="sourcePoint" />
            <mxPoint x="330" y="416.1805263157895" as="targetPoint" />
          </mxGeometry>
        </mxCell>
        <mxCell id="o9jhjcD2wl6_UNwFyDat-45" value="" style="endArrow=classic;html=1;rounded=0;fontStyle=1" edge="1" parent="1" target="o9jhjcD2wl6_UNwFyDat-30">
          <mxGeometry width="50" height="50" relative="1" as="geometry">
            <mxPoint x="500" y="469.99736842105267" as="sourcePoint" />
            <mxPoint x="380" y="478.2868421052632" as="targetPoint" />
          </mxGeometry>
        </mxCell>
        <mxCell id="o9jhjcD2wl6_UNwFyDat-48" value="" style="endArrow=classic;html=1;rounded=0;fontStyle=1" edge="1" parent="1" source="o9jhjcD2wl6_UNwFyDat-41" target="o9jhjcD2wl6_UNwFyDat-46">
          <mxGeometry width="50" height="50" relative="1" as="geometry">
            <mxPoint x="220" y="598.5489473684211" as="sourcePoint" />
            <mxPoint x="650" y="656.5752631578948" as="targetPoint" />
          </mxGeometry>
        </mxCell>
        <mxCell id="o9jhjcD2wl6_UNwFyDat-49" value="" style="endArrow=block;html=1;rounded=0;dashed=1;endFill=0;fontStyle=1" edge="1" parent="1" source="o9jhjcD2wl6_UNwFyDat-46">
          <mxGeometry width="50" height="50" relative="1" as="geometry">
            <mxPoint x="220" y="598.5489473684211" as="sourcePoint" />
            <mxPoint x="310" y="722.891052631579" as="targetPoint" />
          </mxGeometry>
        </mxCell>
        <mxCell id="o9jhjcD2wl6_UNwFyDat-51" value="" style="html=1;points=[];perimeter=orthogonalPerimeter;outlineConnect=0;targetShapes=umlLifeline;portConstraint=eastwest;newEdgeStyle={&quot;edgeStyle&quot;:&quot;elbowEdgeStyle&quot;,&quot;elbow&quot;:&quot;vertical&quot;,&quot;curved&quot;:0,&quot;rounded&quot;:0};rounded=0;glass=0;shadow=0;fontStyle=1" vertex="1" parent="1">
          <mxGeometry x="300" y="789.9968421052632" width="20" height="49.736842105263165" as="geometry" />
        </mxCell>
        <mxCell id="o9jhjcD2wl6_UNwFyDat-53" value="" style="endArrow=classic;html=1;rounded=0;fontStyle=1" edge="1" parent="1" target="o9jhjcD2wl6_UNwFyDat-51">
          <mxGeometry width="50" height="50" relative="1" as="geometry">
            <mxPoint x="490" y="790" as="sourcePoint" />
            <mxPoint x="460" y="685.921052631579" as="targetPoint" />
          </mxGeometry>
        </mxCell>
        <mxCell id="o9jhjcD2wl6_UNwFyDat-61" value="&lt;font size=&quot;1&quot;&gt;&lt;span style=&quot;font-size: 15px;&quot;&gt;2: Connexion&lt;/span&gt;&lt;/font&gt;" style="text;html=1;align=center;verticalAlign=middle;resizable=0;points=[];autosize=1;strokeColor=none;fillColor=none;fontStyle=1" vertex="1" parent="1">
          <mxGeometry x="155" y="236.32" width="120" height="30" as="geometry" />
        </mxCell>
        <mxCell id="o9jhjcD2wl6_UNwFyDat-62" value="&lt;span&gt;&lt;font style=&quot;font-size: 15px;&quot;&gt;3: Verification&lt;/font&gt;&lt;/span&gt;" style="text;html=1;align=center;verticalAlign=middle;resizable=0;points=[];autosize=1;strokeColor=none;fillColor=none;fontStyle=1" vertex="1" parent="1">
          <mxGeometry x="340" y="294.34" width="120" height="30" as="geometry" />
        </mxCell>
        <mxCell id="o9jhjcD2wl6_UNwFyDat-63" value="&lt;font style=&quot;font-size: 15px;&quot;&gt;&lt;span&gt;4: Verficiation Compte dans BD&lt;br&gt;&lt;/span&gt;&lt;/font&gt;" style="text;html=1;align=center;verticalAlign=middle;resizable=0;points=[];autosize=1;strokeColor=none;fillColor=none;fontStyle=1" vertex="1" parent="1">
          <mxGeometry x="595" y="300" width="250" height="30" as="geometry" />
        </mxCell>
        <mxCell id="o9jhjcD2wl6_UNwFyDat-66" value="&lt;b&gt;&lt;font style=&quot;font-size: 15px;&quot;&gt;6:&amp;nbsp; Selection Produit&lt;/font&gt;&lt;/b&gt;" style="text;html=1;align=center;verticalAlign=middle;resizable=0;points=[];autosize=1;strokeColor=none;fillColor=none;" vertex="1" parent="1">
          <mxGeometry x="520" y="440" width="170" height="30" as="geometry" />
        </mxCell>
        <mxCell id="o9jhjcD2wl6_UNwFyDat-17" value="" style="endArrow=none;dashed=1;html=1;strokeWidth=2;rounded=0;dashPattern=1 2;fontStyle=1" edge="1" parent="1" source="o9jhjcD2wl6_UNwFyDat-46">
          <mxGeometry width="50" height="50" relative="1" as="geometry">
            <mxPoint x="719.66" y="158.55263157894737" as="sourcePoint" />
            <mxPoint x="720" y="880" as="targetPoint" />
          </mxGeometry>
        </mxCell>
        <mxCell id="o9jhjcD2wl6_UNwFyDat-30" value="" style="html=1;points=[];perimeter=orthogonalPerimeter;outlineConnect=0;targetShapes=umlLifeline;portConstraint=eastwest;newEdgeStyle={&quot;edgeStyle&quot;:&quot;elbowEdgeStyle&quot;,&quot;elbow&quot;:&quot;vertical&quot;,&quot;curved&quot;:0,&quot;rounded&quot;:0};rounded=0;glass=0;shadow=0;fontStyle=1" vertex="1" parent="1">
          <mxGeometry x="710" y="469.99736842105267" width="20" height="33.15789473684211" as="geometry" />
        </mxCell>
        <mxCell id="o9jhjcD2wl6_UNwFyDat-37" value="" style="endArrow=none;dashed=1;html=1;strokeWidth=2;rounded=0;dashPattern=1 2;fontStyle=1" edge="1" parent="1" source="o9jhjcD2wl6_UNwFyDat-30" target="o9jhjcD2wl6_UNwFyDat-36">
          <mxGeometry width="50" height="50" relative="1" as="geometry">
            <mxPoint x="720" y="432.1052631578947" as="sourcePoint" />
            <mxPoint x="720" y="597.8947368421053" as="targetPoint" />
          </mxGeometry>
        </mxCell>
        <mxCell id="o9jhjcD2wl6_UNwFyDat-36" value="" style="html=1;points=[];perimeter=orthogonalPerimeter;outlineConnect=0;targetShapes=umlLifeline;portConstraint=eastwest;newEdgeStyle={&quot;edgeStyle&quot;:&quot;elbowEdgeStyle&quot;,&quot;elbow&quot;:&quot;vertical&quot;,&quot;curved&quot;:0,&quot;rounded&quot;:0};rounded=0;glass=0;shadow=0;fontStyle=1" vertex="1" parent="1">
          <mxGeometry x="710" y="536.3131578947368" width="20" height="33.15789473684211" as="geometry" />
        </mxCell>
        <mxCell id="o9jhjcD2wl6_UNwFyDat-47" value="" style="endArrow=none;dashed=1;html=1;strokeWidth=2;rounded=0;dashPattern=1 2;fontStyle=1" edge="1" parent="1" source="o9jhjcD2wl6_UNwFyDat-36" target="o9jhjcD2wl6_UNwFyDat-46">
          <mxGeometry width="50" height="50" relative="1" as="geometry">
            <mxPoint x="720" y="498.42105263157896" as="sourcePoint" />
            <mxPoint x="720" y="697.3684210526314" as="targetPoint" />
          </mxGeometry>
        </mxCell>
        <mxCell id="o9jhjcD2wl6_UNwFyDat-46" value="" style="html=1;points=[];perimeter=orthogonalPerimeter;outlineConnect=0;targetShapes=umlLifeline;portConstraint=eastwest;newEdgeStyle={&quot;edgeStyle&quot;:&quot;elbowEdgeStyle&quot;,&quot;elbow&quot;:&quot;vertical&quot;,&quot;curved&quot;:0,&quot;rounded&quot;:0};rounded=0;glass=0;shadow=0;fontStyle=1" vertex="1" parent="1">
          <mxGeometry x="710" y="656.5752631578948" width="20" height="66.31578947368422" as="geometry" />
        </mxCell>
        <mxCell id="o9jhjcD2wl6_UNwFyDat-70" value="" style="endArrow=none;dashed=1;html=1;strokeWidth=2;rounded=0;dashPattern=1 2;exitX=0.5;exitY=1;exitDx=0;exitDy=0;fontStyle=1" edge="1" parent="1" source="o9jhjcD2wl6_UNwFyDat-15" target="o9jhjcD2wl6_UNwFyDat-67">
          <mxGeometry width="50" height="50" relative="1" as="geometry">
            <mxPoint x="955" y="120" as="sourcePoint" />
            <mxPoint x="955" y="487" as="targetPoint" />
          </mxGeometry>
        </mxCell>
        <mxCell id="o9jhjcD2wl6_UNwFyDat-67" value="" style="html=1;points=[];perimeter=orthogonalPerimeter;outlineConnect=0;targetShapes=umlLifeline;portConstraint=eastwest;newEdgeStyle={&quot;edgeStyle&quot;:&quot;elbowEdgeStyle&quot;,&quot;elbow&quot;:&quot;vertical&quot;,&quot;curved&quot;:0,&quot;rounded&quot;:0};rounded=0;glass=0;shadow=0;fontStyle=1" vertex="1" parent="1">
          <mxGeometry x="945" y="329.99631578947367" width="20" height="49.736842105263165" as="geometry" />
        </mxCell>
        <mxCell id="o9jhjcD2wl6_UNwFyDat-71" value="&lt;b&gt;&lt;font style=&quot;font-size: 15px;&quot;&gt;5: Connection réussite&lt;/font&gt;&lt;/b&gt;" style="text;html=1;align=center;verticalAlign=middle;resizable=0;points=[];autosize=1;strokeColor=none;fillColor=none;" vertex="1" parent="1">
          <mxGeometry x="625" y="344.08" width="190" height="30" as="geometry" />
        </mxCell>
        <mxCell id="o9jhjcD2wl6_UNwFyDat-72" value="&lt;font style=&quot;font-size: 15px;&quot;&gt;&lt;b&gt;6: Rechetche sur BD&lt;/b&gt;&lt;/font&gt;" style="text;html=1;align=center;verticalAlign=middle;resizable=0;points=[];autosize=1;strokeColor=none;fillColor=none;" vertex="1" parent="1">
          <mxGeometry x="750" y="456.58" width="170" height="30" as="geometry" />
        </mxCell>
        <mxCell id="o9jhjcD2wl6_UNwFyDat-73" value="&lt;b&gt;&lt;font style=&quot;font-size: 15px;&quot;&gt;7: Fournir detail produit&lt;/font&gt;&lt;/b&gt;" style="text;html=1;align=center;verticalAlign=middle;resizable=0;points=[];autosize=1;strokeColor=none;fillColor=none;" vertex="1" parent="1">
          <mxGeometry x="750" y="535" width="190" height="30" as="geometry" />
        </mxCell>
        <mxCell id="o9jhjcD2wl6_UNwFyDat-74" value="&lt;b&gt;&lt;font style=&quot;font-size: 15px;&quot;&gt;8: Afficher Les Details&lt;/font&gt;&lt;/b&gt;" style="text;html=1;align=center;verticalAlign=middle;resizable=0;points=[];autosize=1;strokeColor=none;fillColor=none;" vertex="1" parent="1">
          <mxGeometry x="510" y="520" width="180" height="30" as="geometry" />
        </mxCell>
        <mxCell id="o9jhjcD2wl6_UNwFyDat-75" value="&lt;b&gt;&lt;font style=&quot;font-size: 15px;&quot;&gt;9: Montrer au Client&lt;/font&gt;&lt;/b&gt;" style="text;html=1;align=center;verticalAlign=middle;resizable=0;points=[];autosize=1;strokeColor=none;fillColor=none;" vertex="1" parent="1">
          <mxGeometry x="320" y="610" width="160" height="30" as="geometry" />
        </mxCell>
        <mxCell id="o9jhjcD2wl6_UNwFyDat-76" value="&lt;b&gt;&lt;font style=&quot;font-size: 15px;&quot;&gt;10: Ajouter au Panier&lt;/font&gt;&lt;/b&gt;" style="text;html=1;align=center;verticalAlign=middle;resizable=0;points=[];autosize=1;strokeColor=none;fillColor=none;" vertex="1" parent="1">
          <mxGeometry x="515" y="626.58" width="170" height="30" as="geometry" />
        </mxCell>
        <mxCell id="o9jhjcD2wl6_UNwFyDat-77" value="&lt;b&gt;&lt;font style=&quot;font-size: 15px;&quot;&gt;12: Déconnection&lt;/font&gt;&lt;/b&gt;" style="text;html=1;align=center;verticalAlign=middle;resizable=0;points=[];autosize=1;strokeColor=none;fillColor=none;" vertex="1" parent="1">
          <mxGeometry x="325" y="760" width="150" height="30" as="geometry" />
        </mxCell>
        <mxCell id="o9jhjcD2wl6_UNwFyDat-80" value="&lt;b&gt;&lt;font style=&quot;font-size: 15px;&quot;&gt;11: Succès&lt;/font&gt;&lt;/b&gt;" style="text;html=1;align=center;verticalAlign=middle;resizable=0;points=[];autosize=1;strokeColor=none;fillColor=none;" vertex="1" parent="1">
          <mxGeometry x="525" y="718" width="100" height="30" as="geometry" />
        </mxCell>
      </root>
    </mxGraphModel>
  </diagram>
</mxfile>
